<?xml version="1.0" encoding="UTF-8"?>
<svg width="100" height="100" viewBox="0 0 100 100" xmlns="http://www.w3.org/2000/svg">
  <circle cx="50" cy="50" r="40" fill="#f0e6d9" stroke="#e0c9a6" stroke-width="2"/>
  <path d="M50 25C39.5 25 31 33.5 31 44C31 54.5 39.5 63 50 63C60.5 63 69 54.5 69 44C69 33.5 60.5 25 50 25ZM50 35C52.8 35 55 37.2 55 40C55 42.8 52.8 45 50 45C47.2 45 45 42.8 45 40C45 37.2 47.2 35 50 35ZM50 60C45.5 60 41.5 57.8 39 54.3C39.1 49.2 44.8 46.5 50 46.5C55.2 46.5 60.9 49.2 61 54.3C58.5 57.8 54.5 60 50 60Z" fill="#8B4513"/>
  <path d="M35 65C30 65 25 70 25 75V77C25 78.1 25.9 79 27 79H73C74.1 79 75 78.1 75 77V75C75 70 70 65 65 65H35Z" fill="#8B4513"/>
</svg>
