<?xml version="1.0" encoding="UTF-8"?>
<svg width="100" height="100" viewBox="0 0 100 100" xmlns="http://www.w3.org/2000/svg">
  <circle cx="50" cy="50" r="40" fill="#f0e6d9" stroke="#e0c9a6" stroke-width="2"/>
  <path d="M50 20C35 20 25 30 25 45V75H35V45C35 35 40 30 50 30C60 30 65 35 65 45V75H75V45C75 30 65 20 50 20Z" fill="#8B4513"/>
  <path d="M45 50H55V75H45V50Z" fill="#8B4513"/>
  <path d="M40 40C40 35.5817 44.0294 32 49 32C53.9706 32 58 35.5817 58 40C58 44.4183 53.9706 48 49 48C44.0294 48 40 44.4183 40 40Z" fill="#FFD700"/>
</svg>
