<?xml version="1.0" encoding="UTF-8"?>
<svg width="200" height="200" viewBox="0 0 200 200" xmlns="http://www.w3.org/2000/svg">
  <circle cx="100" cy="100" r="100" fill="#f0e6d9"/>
  <!-- Cabelo -->
  <path d="M60 60C60 50 80 30 100 30C120 30 140 50 140 60V75H60V60Z" fill="#4b3621"/>
  <!-- Rosto -->
  <circle cx="100" cy="90" r="40" fill="#f9e0c0"/>
  <!-- Olhos -->
  <circle cx="85" cy="80" r="5" fill="#4b3621"/>
  <circle cx="115" cy="80" r="5" fill="#4b3621"/>
  <!-- Sobrancelhas -->
  <path d="M75 70C80 65 90 65 95 70" stroke="#4b3621" stroke-width="2" fill="none"/>
  <path d="M105 70C110 65 120 65 125 70" stroke="#4b3621" stroke-width="2" fill="none"/>
  <!-- Boca -->
  <path d="M90 105C95 110 105 110 110 105" stroke="#c97b84" stroke-width="2" fill="none"/>
  <!-- Barba -->
  <path d="M70 95C70 120 130 120 130 95V110C130 130 70 130 70 110V95Z" fill="#4b3621"/>
</svg>
