<?xml version="1.0" encoding="UTF-8"?>
<svg width="200" height="200" viewBox="0 0 200 200" xmlns="http://www.w3.org/2000/svg">
  <circle cx="100" cy="100" r="100" fill="#f0e6d9"/>
  <!-- Cabelo -->
  <path d="M100 40C70 40 50 70 50 100V140H150V100C150 70 130 40 100 40Z" fill="#8B4513"/>
  <!-- Rosto -->
  <circle cx="100" cy="90" r="40" fill="#f9e0c0"/>
  <!-- Olhos -->
  <circle cx="85" cy="80" r="5" fill="#4b3621"/>
  <circle cx="115" cy="80" r="5" fill="#4b3621"/>
  <!-- Sobrancelhas -->
  <path d="M75 70C80 65 90 65 95 70" stroke="#8B4513" stroke-width="2" fill="none"/>
  <path d="M105 70C110 65 120 65 125 70" stroke="#8B4513" stroke-width="2" fill="none"/>
  <!-- Boca -->
  <path d="M90 105C95 110 105 110 110 105" stroke="#c97b84" stroke-width="2" fill="none"/>
  <!-- Brincos -->
  <circle cx="70" cy="95" r="3" fill="#FFD700"/>
  <circle cx="130" cy="95" r="3" fill="#FFD700"/>
</svg>
